<svg xmlns="http://www.w3.org/2000/svg" viewBox="0 0 400 400"><defs><linearGradient id="b" x2="1" y2="1"><stop stop-color="#d5f8e7"/><stop offset="1" stop-color="#65d6a0"/></linearGradient></defs><rect width="400" height="400" rx="72" fill="url(#b)"/><circle cx="200" cy="177" r="82" fill="#f0bd9c"/><path d="M116 170c-5-75 32-121 92-121 48 0 76 25 84 69-25-13-47-12-65 1-37 27-72 36-111 51Z" fill="#643d2b"/><path d="M80 400c8-107 52-148 120-148s112 41 120 148" fill="#ef4125"/><circle cx="168" cy="178" r="7" fill="#33251f"/><circle cx="234" cy="178" r="7" fill="#33251f"/><path d="M169 217c20 11 43 11 62 0" fill="none" stroke="#a35f51" stroke-width="7" stroke-linecap="round"/><circle cx="278" cy="90" r="22" fill="#fff" opacity=".8"/></svg>
